<?xml version="1.0" standalone="no"?>
<!DOCTYPE svg PUBLIC "-//W3C//DTD SVG 20010904//EN"
 "http://www.w3.org/TR/2001/REC-SVG-20010904/DTD/svg10.dtd">
<svg version="1.0" xmlns="http://www.w3.org/2000/svg"
 width="640.000000pt" height="640.000000pt" viewBox="0 0 640.000000 640.000000"
 preserveAspectRatio="xMidYMid meet">
<metadata>
Created by potrace 1.14, written by Peter Selinger 2001-2017
</metadata>
<g transform="translate(0.000000,640.000000) scale(0.100000,-0.100000)"
fill="#000000" stroke="none">
<path d="M0 3200 l0 -3200 3200 0 3200 0 0 3200 0 3200 -3200 0 -3200 0 0
-3200z m3351 1996 c150 -36 284 -140 377 -294 99 -165 147 -405 123 -617 -37
-317 -143 -585 -353 -889 -32 -46 -44 -72 -36 -74 7 -1 199 20 427 48 228 27
416 50 419 50 6 0 -3 -429 -9 -434 -2 -2 -210 12 -462 32 -251 19 -460 32
-464 29 -4 -5 169 -1553 204 -1814 l6 -43 -362 0 c-198 0 -361 3 -361 8 0 4
45 416 101 915 55 500 98 911 95 914 -5 6 -833 -52 -925 -64 l-44 -6 7 229 c4
125 8 229 10 231 1 1 192 -20 425 -48 232 -28 424 -49 427 -46 3 2 -25 54 -62
113 -168 272 -223 383 -284 565 -51 154 -74 338 -60 483 33 344 240 628 515
707 73 21 208 23 286 5z"/>
<path d="M3130 4917 c-134 -38 -241 -172 -291 -366 -40 -155 -35 -308 17 -501
35 -128 160 -383 269 -545 48 -71 89 -132 91 -134 5 -6 21 14 98 129 160 240
243 438 282 679 45 280 -23 529 -182 670 -74 65 -194 93 -284 68z"/>
</g>
</svg>
